{
  "accessors": [
    {
      "bufferView": 2,
      "componentType": 5126,
      "count": 127,
      "max": [
        3.875744104385376,
        -0.062891997396945953,
        1.166363000869751
      ],
      "min": [
        -0.45629099011421204,
        -2.8493781089782715,
        -0.23528400063514709
      ],
      "type": "VEC3"
    },
    {
      "bufferView": 2,
      "byteOffset": 1524,
      "componentType": 5126,
      "count": 127,
      "max": [
        0.96544766426086426,
        0.34084102511405945,
        1
      ],
      "min": [
        -0.96544766426086426,
        -0.97153139114379883,
        -0.93979865312576294
      ],
      "type": "VEC3"
    },
    {
      "bufferView": 3,
      "componentType": 5126,
      "count": 127,
      "max": [
        1,
        1,
        0.9605744481086731,
        1
      ],
      "min": [
        -1,
        -0.94905614852905273,
        -0.99988687038421631,
        -1
      ],
      "type": "VEC4"
    },
    {
      "bufferView": 1,
      "componentType": 5126,
      "count": 127,
      "max": [
        1,
        1
      ],
      "min": [
        -0.99703699350357056,
        -9.9999999747524271e-07
      ],
      "type": "VEC2"
    },
    {
      "bufferView": 0,
      "componentType": 5125,
      "count": 312,
      "max": [
        126
      ],
      "min": [
        0
      ],
      "type": "SCALAR"
    },
    {
      "bufferView": 2,
      "byteOffset": 3048,
      "componentType": 5126,
      "count": 4454,
      "max": [
        6.8611001968383789,
        5.618250846862793,
        2.1323490142822266
      ],
      "min": [
        -6.8623089790344238,
        -5.7336821556091309,
        -1.6680259704589844
      ],
      "type": "VEC3"
    },
    {
      "bufferView": 2,
      "byteOffset": 56496,
      "componentType": 5126,
      "count": 4454,
      "max": [
        1,
        1,
        1
      ],
      "min": [
        -1,
        -1,
        -1
      ],
      "type": "VEC3"
    },
    {
      "bufferView": 3,
      "byteOffset": 2032,
      "componentType": 5126,
      "count": 4454,
      "max": [
        1,
        1,
        1,
        1
      ],
      "min": [
        -1,
        -1,
        -1,
        -1
      ],
      "type": "VEC4"
    },
    {
      "bufferView": 1,
      "byteOffset": 1016,
      "componentType": 5126,
      "count": 4454,
      "max": [
        0.99896401166915894,
        0.99551898241043091
      ],
      "min": [
        0.0023990001063793898,
        0.0016740000573918223
      ],
      "type": "VEC2"
    },
    {
      "bufferView": 0,
      "byteOffset": 1248,
      "componentType": 5125,
      "count": 9957,
      "max": [
        4453
      ],
      "min": [
        0
      ],
      "type": "SCALAR"
    },
    {
      "bufferView": 2,
      "byteOffset": 109944,
      "componentType": 5126,
      "count": 2184,
      "max": [
        7.0028471946716309,
        5.618250846862793,
        2.1579489707946777
      ],
      "min": [
        -7.0064182281494141,
        -5.6756000518798828,
        -1.8498769998550415
      ],
      "type": "VEC3"
    },
    {
      "bufferView": 2,
      "byteOffset": 136152,
      "componentType": 5126,
      "count": 2184,
      "max": [
        1,
        1,
        1
      ],
      "min": [
        -1,
        -1,
        -1
      ],
      "type": "VEC3"
    },
    {
      "bufferView": 3,
      "byteOffset": 73296,
      "componentType": 5126,
      "count": 2184,
      "max": [
        1,
        1,
        1,
        1
      ],
      "min": [
        -1,
        -0.99956357479095459,
        -1,
        -1
      ],
      "type": "VEC4"
    },
    {
      "bufferView": 1,
      "byteOffset": 36648,
      "componentType": 5126,
      "count": 2184,
      "max": [
        0.99896401166915894,
        0.88864797353744507
      ],
      "min": [
        0.0032309999223798513,
        0.0038389998953789473
      ],
      "type": "VEC2"
    },
    {
      "bufferView": 0,
      "byteOffset": 41076,
      "componentType": 5125,
      "count": 8403,
      "max": [
        2183
      ],
      "min": [
        0
      ],
      "type": "SCALAR"
    },
    {
      "bufferView": 2,
      "byteOffset": 162360,
      "componentType": 5126,
      "count": 1374,
      "max": [
        7.3148889541625977,
        1.1900299787521362,
        0.79605400562286377
      ],
      "min": [
        -7.3148889541625977,
        -5.1306500434875488,
        -0.81840598583221436
      ],
      "type": "VEC3"
    },
    {
      "bufferView": 2,
      "byteOffset": 178848,
      "componentType": 5126,
      "count": 1374,
      "max": [
        1,
        0.83730828762054443,
        1
      ],
      "min": [
        -1,
        -1,
        -0.99972814321517944
      ],
      "type": "VEC3"
    },
    {
      "bufferView": 3,
      "byteOffset": 108240,
      "componentType": 5126,
      "count": 1374,
      "max": [
        1,
        1,
        0.99995309114456177,
        1
      ],
      "min": [
        -1,
        -0.9999968409538269,
        -0.99985170364379883,
        -1
      ],
      "type": "VEC4"
    },
    {
      "bufferView": 1,
      "byteOffset": 54120,
      "componentType": 5126,
      "count": 1374,
      "max": [
        0.88589602708816528,
        0.99897897243499756
      ],
      "min": [
        0.014410000294446945,
        0.19743199646472931
      ],
      "type": "VEC2"
    },
    {
      "bufferView": 0,
      "byteOffset": 74688,
      "componentType": 5125,
      "count": 5868,
      "max": [
        1373
      ],
      "min": [
        0
      ],
      "type": "SCALAR"
    },
    {
      "bufferView": 2,
      "byteOffset": 195336,
      "componentType": 5126,
      "count": 435,
      "max": [
        1.8515880107879639,
        5.5078659057617188,
        -0.037819001823663712
      ],
      "min": [
        -1.8515880107879639,
        -3.2181310653686523,
        -2.0235691070556641
      ],
      "type": "VEC3"
    },
    {
      "bufferView": 2,
      "byteOffset": 200556,
      "componentType": 5126,
      "count": 435,
      "max": [
        1,
        1,
        1
      ],
      "min": [
        -1,
        -1,
        -1
      ],
      "type": "VEC3"
    },
    {
      "bufferView": 3,
      "byteOffset": 130224,
      "componentType": 5126,
      "count": 435,
      "max": [
        1,
        1,
        0.53646129369735718,
        1
      ],
      "min": [
        -0.99967300891876221,
        -0.5364612340927124,
        -1,
        -1
      ],
      "type": "VEC4"
    },
    {
      "bufferView": 1,
      "byteOffset": 65112,
      "componentType": 5126,
      "count": 435,
      "max": [
        0.3705579936504364,
        0.49844399094581604
      ],
      "min": [
        0.0047960001975297928,
        0.0017229999648407102
      ],
      "type": "VEC2"
    },
    {
      "bufferView": 0,
      "byteOffset": 98160,
      "componentType": 5125,
      "count": 1800,
      "max": [
        434
      ],
      "min": [
        0
      ],
      "type": "SCALAR"
    }
  ],
  "asset": {
    "extras": {
      "author": "NOD (https://sketchfab.com/nodmans)",
      "license": "CC-BY-NC-4.0 (http://creativecommons.org/licenses/by-nc/4.0/)",
      "source": "https://sketchfab.com/3d-models/il-2-ff7bffad1b504d5cac67f69db2682131",
      "title": "IL-2"
    },
    "generator": "Sketchfab-6.72.0",
    "version": "2.0"
  },
  "bufferViews": [
    {
      "buffer": 0,
      "byteLength": 105360,
      "byteOffset": 0,
      "name": "floatBufferViews",
      "target": 34963
    },
    {
      "buffer": 0,
      "byteLength": 68592,
      "byteOffset": 105360,
      "byteStride": 8,
      "name": "floatBufferViews",
      "target": 34962
    },
    {
      "buffer": 0,
      "byteLength": 205776,
      "byteOffset": 173952,
      "byteStride": 12,
      "name": "floatBufferViews",
      "target": 34962
    },
    {
      "buffer": 0,
      "byteLength": 137184,
      "byteOffset": 379728,
      "byteStride": 16,
      "name": "floatBufferViews",
      "target": 34962
    }
  ],
  "buffers": [
    {
      "byteLength": 516912,
      "uri": "scene.bin"
    }
  ],
  "images": [
    {
      "uri": "textures/blinn1SG_baseColor.png"
    },
    {
      "uri": "textures/blinn2SG_baseColor.png"
    },
    {
      "uri": "textures/blinn2SG_normal.png"
    },
    {
      "uri": "textures/blinn3SG_baseColor.png"
    }
  ],
  "materials": [
    {
      "alphaMode": "BLEND",
      "doubleSided": true,
      "emissiveFactor": [
        0,
        0,
        0
      ],
      "name": "blinn1SG",
      "pbrMetallicRoughness": {
        "baseColorFactor": [
          1,
          1,
          1,
          1
        ],
        "baseColorTexture": {
          "index": 0,
          "texCoord": 0
        },
        "metallicFactor": 0,
        "roughnessFactor": 0.20000000000000001
      }
    },
    {
      "doubleSided": true,
      "emissiveFactor": [
        0,
        0,
        0
      ],
      "name": "blinn2SG",
      "normalTexture": {
        "index": 2,
        "scale": 1,
        "texCoord": 0
      },
      "pbrMetallicRoughness": {
        "baseColorFactor": [
          1,
          1,
          1,
          1
        ],
        "baseColorTexture": {
          "index": 1,
          "texCoord": 0
        },
        "metallicFactor": 0.56000000000000005,
        "roughnessFactor": 0.20000000000000001
      }
    },
    {
      "doubleSided": true,
      "emissiveFactor": [
        0,
        0,
        0
      ],
      "name": "blinn3SG",
      "pbrMetallicRoughness": {
        "baseColorFactor": [
          0.14000000000000001,
          0.14000000000000001,
          0.14000000000000001,
          1
        ],
        "baseColorTexture": {
          "index": 3,
          "texCoord": 0
        },
        "metallicFactor": 0,
        "roughnessFactor": 0.20000000000000001
      }
    }
  ],
  "meshes": [
    {
      "primitives": [
        {
          "attributes": {
            "NORMAL": 1,
            "POSITION": 0,
            "TANGENT": 2,
            "TEXCOORD_0": 3
          },
          "indices": 4,
          "material": 0,
          "mode": 4
        }
      ]
    },
    {
      "primitives": [
        {
          "attributes": {
            "NORMAL": 6,
            "POSITION": 5,
            "TANGENT": 7,
            "TEXCOORD_0": 8
          },
          "indices": 9,
          "material": 1,
          "mode": 4
        }
      ]
    },
    {
      "primitives": [
        {
          "attributes": {
            "NORMAL": 11,
            "POSITION": 10,
            "TANGENT": 12,
            "TEXCOORD_0": 13
          },
          "indices": 14,
          "material": 1,
          "mode": 4
        }
      ]
    },
    {
      "primitives": [
        {
          "attributes": {
            "NORMAL": 16,
            "POSITION": 15,
            "TANGENT": 17,
            "TEXCOORD_0": 18
          },
          "indices": 19,
          "material": 1,
          "mode": 4
        }
      ]
    },
    {
      "primitives": [
        {
          "attributes": {
            "NORMAL": 21,
            "POSITION": 20,
            "TANGENT": 22,
            "TEXCOORD_0": 23
          },
          "indices": 24,
          "material": 2,
          "mode": 4
        }
      ]
    }
  ],
  "nodes": [
    {
      "children": [
        1
      ],
      "name": "RootNode (gltf orientation matrix)",
      "rotation": [
        -0.70710678118654746,
        -0,
        -0,
        0.70710678118654757
      ]
    },
    {
      "children": [
        2
      ],
      "name": "RootNode (model correction matrix)"
    },
    {
      "children": [
        3,
        4,
        5,
        6,
        7
      ],
      "name": "il2_test.obj.cleaner.gles"
    },
    {
      "mesh": 0,
      "name": ""
    },
    {
      "mesh": 1,
      "name": ""
    },
    {
      "mesh": 2,
      "name": ""
    },
    {
      "mesh": 3,
      "name": ""
    },
    {
      "mesh": 4,
      "name": ""
    }
  ],
  "samplers": [
    {
      "magFilter": 9729,
      "minFilter": 9987,
      "wrapS": 10497,
      "wrapT": 10497
    }
  ],
  "scene": 0,
  "scenes": [
    {
      "name": "OSG_Scene",
      "nodes": [
        0
      ]
    }
  ],
  "textures": [
    {
      "sampler": 0,
      "source": 0
    },
    {
      "sampler": 0,
      "source": 1
    },
    {
      "sampler": 0,
      "source": 2
    },
    {
      "sampler": 0,
      "source": 3
    }
  ]
}

