{
  "accessors": [
    {
      "bufferView": 2,
      "componentType": 5126,
      "count": 2936,
      "max": [
        -183.843994140625,
        -9.187529563903809,
        -99.4813003540039
      ],
      "min": [
        -190.54200744628906,
        -12.420700073242188,
        -107.11599731445313
      ],
      "type": "VEC3"
    },
    {
      "bufferView": 2,
      "byteOffset": 35232,
      "componentType": 5126,
      "count": 2936,
      "max": [
        0.7071068286895752,
        -0.7065618634223938,
        0.7071068286895752
      ],
      "min": [
        -0.7071068286895752,
        -0.9980219602584839,
        -0.7071068286895752
      ],
      "type": "VEC3"
    },
    {
      "bufferView": 1,
      "componentType": 5126,
      "count": 2936,
      "max": [
        1.0007200241088867,
        0.9887760281562805
      ],
      "min": [
        -0.0006520000169984996,
        0.0008199810981750488
      ],
      "type": "VEC2"
    },
    {
      "bufferView": 0,
      "componentType": 5125,
      "count": 9120,
      "type": "SCALAR"
    },
    {
      "bufferView": 2,
      "byteOffset": 70464,
      "componentType": 5126,
      "count": 694,
      "max": [
        -198.8769989013672,
        -9.278909683227539,
        -100.052001953125
      ],
      "min": [
        -202.0,
        -12.401300430297852,
        -106.54499816894531
      ],
      "type": "VEC3"
    },
    {
      "bufferView": 2,
      "byteOffset": 78792,
      "componentType": 5126,
      "count": 694,
      "max": [
        0.7071068286895752,
        -0.7057140469551086,
        0.7071068286895752
      ],
      "min": [
        -0.7071068286895752,
        -0.9998760223388672,
        -0.7071068286895752
      ],
      "type": "VEC3"
    },
    {
      "bufferView": 1,
      "byteOffset": 23488,
      "componentType": 5126,
      "count": 694,
      "max": [
        0.9994189739227295,
        0.9789279699325562
      ],
      "min": [
        0.000645000021904707,
        0.06587100028991699
      ],
      "type": "VEC2"
    },
    {
      "bufferView": 0,
      "byteOffset": 36480,
      "componentType": 5125,
      "count": 2172,
      "type": "SCALAR"
    },
    {
      "bufferView": 2,
      "byteOffset": 87120,
      "componentType": 5126,
      "count": 1760,
      "max": [
        -179.4040069580078,
        -7.724759780103341e-05,
        -99.25240325927734
      ],
      "min": [
        -195.18299865722656,
        -10.128100395202637,
        -107.34500122070313
      ],
      "type": "VEC3"
    },
    {
      "bufferView": 2,
      "byteOffset": 108240,
      "componentType": 5126,
      "count": 1760,
      "max": [
        0.7071068286895752,
        -0.7065616250038147,
        0.7071068286895752
      ],
      "min": [
        -0.7071068286895752,
        -0.9997212290763855,
        -0.7071068286895752
      ],
      "type": "VEC3"
    },
    {
      "bufferView": 1,
      "byteOffset": 29040,
      "componentType": 5126,
      "count": 1760,
      "max": [
        0.9968519806861877,
        0.9919829964637756
      ],
      "min": [
        0.03832999989390373,
        0.039282023906707764
      ],
      "type": "VEC2"
    },
    {
      "bufferView": 0,
      "byteOffset": 45168,
      "componentType": 5125,
      "count": 3735,
      "type": "SCALAR"
    },
    {
      "bufferView": 2,
      "byteOffset": 129360,
      "componentType": 5126,
      "count": 5340,
      "max": [
        -182.11399841308594,
        -4.835040092468262,
        -99.47940063476563
      ],
      "min": [
        -202.28199768066406,
        -11.613100051879883,
        -107.11799621582031
      ],
      "type": "VEC3"
    },
    {
      "bufferView": 2,
      "byteOffset": 193440,
      "componentType": 5126,
      "count": 5340,
      "max": [
        0.7071068286895752,
        -0.7051072716712952,
        0.7071068286895752
      ],
      "min": [
        -0.7071068286895752,
        -1.0,
        -0.7071068286895752
      ],
      "type": "VEC3"
    },
    {
      "bufferView": 1,
      "byteOffset": 43120,
      "componentType": 5126,
      "count": 5340,
      "max": [
        0.9804279804229736,
        0.9964399933815002
      ],
      "min": [
        0.003447999944910407,
        0.0020949840545654297
      ],
      "type": "VEC2"
    },
    {
      "bufferView": 0,
      "byteOffset": 60108,
      "componentType": 5125,
      "count": 14388,
      "type": "SCALAR"
    }
  ],
  "asset": {
    "extras": {
      "author": "erty546453 (https://sketchfab.com/erty546453)",
      "license": "CC-BY-4.0 (http://creativecommons.org/licenses/by/4.0/)",
      "source": "https://sketchfab.com/3d-models/katyusha-low-poly-a4871258d34c49eaa302bf908a7654db",
      "title": "katyusha low poly"
    },
    "generator": "Sketchfab-10.55.0",
    "version": "2.0"
  },
  "bufferViews": [
    {
      "buffer": 0,
      "byteLength": 117660,
      "name": "floatBufferViews",
      "target": 34963
    },
    {
      "buffer": 0,
      "byteLength": 85840,
      "byteOffset": 117660,
      "byteStride": 8,
      "name": "floatBufferViews",
      "target": 34962
    },
    {
      "buffer": 0,
      "byteLength": 257520,
      "byteOffset": 203500,
      "byteStride": 12,
      "name": "floatBufferViews",
      "target": 34962
    }
  ],
  "buffers": [
    {
      "byteLength": 461020,
      "uri": "scene.bin"
    }
  ],
  "extensionsRequired": [
    "KHR_materials_pbrSpecularGlossiness"
  ],
  "extensionsUsed": [
    "KHR_materials_pbrSpecularGlossiness"
  ],
  "images": [
    {
      "uri": "textures/material_1_diffuse.png"
    },
    {
      "uri": "textures/material_0_diffuse.png"
    }
  ],
  "materials": [
    {
      "doubleSided": true,
      "extensions": {
        "KHR_materials_pbrSpecularGlossiness": {
          "diffuseFactor": [
            1.0,
            1.0,
            1.0,
            1.0
          ],
          "diffuseTexture": {
            "index": 0
          },
          "glossinessFactor": 0.0,
          "specularFactor": [
            0.00226295,
            0.00226295,
            0.00226295
          ]
        }
      },
      "name": "material_1"
    },
    {
      "doubleSided": true,
      "extensions": {
        "KHR_materials_pbrSpecularGlossiness": {
          "diffuseFactor": [
            1.0,
            1.0,
            1.0,
            1.0
          ],
          "diffuseTexture": {
            "index": 1
          },
          "glossinessFactor": 0.0,
          "specularFactor": [
            0.00226295,
            0.00226295,
            0.00226295
          ]
        }
      },
      "name": "material_0"
    }
  ],
  "meshes": [
    {
      "name": "Object_0",
      "primitives": [
        {
          "attributes": {
            "NORMAL": 1,
            "POSITION": 0,
            "TEXCOORD_0": 2
          },
          "indices": 3,
          "material": 1,
          "mode": 4
        }
      ]
    },
    {
      "name": "Object_1",
      "primitives": [
        {
          "attributes": {
            "NORMAL": 5,
            "POSITION": 4,
            "TEXCOORD_0": 6
          },
          "indices": 7,
          "material": 1,
          "mode": 4
        }
      ]
    },
    {
      "name": "Object_2",
      "primitives": [
        {
          "attributes": {
            "NORMAL": 9,
            "POSITION": 8,
            "TEXCOORD_0": 10
          },
          "indices": 11,
          "material": 0,
          "mode": 4
        }
      ]
    },
    {
      "name": "Object_3",
      "primitives": [
        {
          "attributes": {
            "NORMAL": 13,
            "POSITION": 12,
            "TEXCOORD_0": 14
          },
          "indices": 15,
          "material": 0,
          "mode": 4
        }
      ]
    }
  ],
  "nodes": [
    {
      "children": [
        1
      ],
      "matrix": [
        1.0,
        0.0,
        0.0,
        0.0,
        0.0,
        2.220446049250313e-16,
        -1.0,
        0.0,
        0.0,
        1.0,
        2.220446049250313e-16,
        0.0,
        0.0,
        0.0,
        0.0,
        1.0
      ],
      "name": "Sketchfab_model"
    },
    {
      "children": [
        2
      ],
      "name": "root"
    },
    {
      "children": [
        3
      ],
      "matrix": [
        1.0,
        0.0,
        0.0,
        0.0,
        0.0,
        2.220446049250313e-16,
        1.0,
        0.0,
        0.0,
        -1.0,
        2.220446049250313e-16,
        0.0,
        0.0,
        0.0,
        0.0,
        1.0
      ],
      "name": "GLTF_SceneRootNode"
    },
    {
      "children": [
        4,
        5,
        6,
        7
      ],
      "name": "Asset3DLoader.sceneRoot_0"
    },
    {
      "mesh": 0,
      "name": "Object_4"
    },
    {
      "mesh": 1,
      "name": "Object_5"
    },
    {
      "mesh": 2,
      "name": "Object_6"
    },
    {
      "mesh": 3,
      "name": "Object_7"
    }
  ],
  "samplers": [
    {
      "magFilter": 9729,
      "minFilter": 9987,
      "wrapS": 10497,
      "wrapT": 10497
    }
  ],
  "scene": 0,
  "scenes": [
    {
      "name": "Sketchfab_Scene",
      "nodes": [
        0
      ]
    }
  ],
  "textures": [
    {
      "sampler": 0,
      "source": 0
    },
    {
      "sampler": 0,
      "source": 1
    }
  ]
}
