{
  "accessors": [
    {
      "bufferView": 2,
      "componentType": 5126,
      "count": 65534,
      "max": [
        13.723553657531738,
        -0.51085662841796875,
        12.006054878234863
      ],
      "min": [
        2.6598174571990967,
        -11.308424949645996,
        -0.27496707439422607
      ],
      "type": "VEC3"
    },
    {
      "bufferView": 2,
      "byteOffset": 786408,
      "componentType": 5126,
      "count": 65534,
      "max": [
        0.99976438283920288,
        0.99998182058334351,
        0.99980461597442627
      ],
      "min": [
        -0.99935436248779297,
        -0.99999940395355225,
        -0.99960339069366455
      ],
      "type": "VEC3"
    },
    {
      "bufferView": 3,
      "componentType": 5126,
      "count": 65534,
      "max": [
        0.87450981140136719,
        0.87450981140136719,
        0.87058824300765991,
        1
      ],
      "min": [
        0,
        0,
        0,
        1
      ],
      "type": "VEC4"
    },
    {
      "bufferView": 1,
      "componentType": 5126,
      "count": 65534,
      "max": [
        0.9996340274810791,
        0.9852290153503418
      ],
      "min": [
        0.00012199999764561653,
        0.00036599999293684959
      ],
      "type": "VEC2"
    },
    {
      "bufferView": 0,
      "componentType": 5125,
      "count": 311124,
      "max": [
        65533
      ],
      "min": [
        0
      ],
      "type": "SCALAR"
    },
    {
      "bufferView": 2,
      "byteOffset": 1572816,
      "componentType": 5126,
      "count": 65532,
      "max": [
        12.927916526794434,
        -0.41662025451660156,
        13.172401428222656
      ],
      "min": [
        0.37919026613235474,
        -11.271049499511719,
        -8.9335184097290039
      ],
      "type": "VEC3"
    },
    {
      "bufferView": 2,
      "byteOffset": 2359200,
      "componentType": 5126,
      "count": 65532,
      "max": [
        0.99997460842132568,
        0.99997156858444214,
        0.99969691038131714
      ],
      "min": [
        -0.99991172552108765,
        -0.99999964237213135,
        -0.99990028142929077
      ],
      "type": "VEC3"
    },
    {
      "bufferView": 3,
      "byteOffset": 1048544,
      "componentType": 5126,
      "count": 65532,
      "max": [
        0.89019608497619629,
        0.87843137979507446,
        0.92156863212585449,
        1
      ],
      "min": [
        0,
        0,
        0,
        1
      ],
      "type": "VEC4"
    },
    {
      "bufferView": 1,
      "byteOffset": 524272,
      "componentType": 5126,
      "count": 65532,
      "max": [
        0.9996340274810791,
        0.98889100551605225
      ],
      "min": [
        0.00012199999764561653,
        0.00036599999293684959
      ],
      "type": "VEC2"
    },
    {
      "bufferView": 0,
      "byteOffset": 1244496,
      "componentType": 5125,
      "count": 290796,
      "max": [
        65531
      ],
      "min": [
        0
      ],
      "type": "SCALAR"
    },
    {
      "bufferView": 2,
      "byteOffset": 3145584,
      "componentType": 5126,
      "count": 65532,
      "max": [
        13.618372917175293,
        -0.34027004241943359,
        10.341253280639648
      ],
      "min": [
        -3.7007575035095215,
        -10.729706764221191,
        -8.9763278961181641
      ],
      "type": "VEC3"
    },
    {
      "bufferView": 2,
      "byteOffset": 3931968,
      "componentType": 5126,
      "count": 65532,
      "max": [
        0.99999791383743286,
        0.99995744228363037,
        0.999764084815979
      ],
      "min": [
        -0.99989408254623413,
        -0.99999827146530151,
        -0.99989384412765503
      ],
      "type": "VEC3"
    },
    {
      "bufferView": 3,
      "byteOffset": 2097056,
      "componentType": 5126,
      "count": 65532,
      "max": [
        0.87450981140136719,
        0.87450981140136719,
        0.87058824300765991,
        1
      ],
      "min": [
        0,
        0,
        0,
        1
      ],
      "type": "VEC4"
    },
    {
      "bufferView": 1,
      "byteOffset": 1048528,
      "componentType": 5126,
      "count": 65532,
      "max": [
        0.9996340274810791,
        0.99401801824569702
      ],
      "min": [
        0.00012199999764561653,
        0.00036599999293684959
      ],
      "type": "VEC2"
    },
    {
      "bufferView": 0,
      "byteOffset": 2407680,
      "componentType": 5125,
      "count": 276210,
      "max": [
        65531
      ],
      "min": [
        0
      ],
      "type": "SCALAR"
    },
    {
      "bufferView": 2,
      "byteOffset": 4718352,
      "componentType": 5126,
      "count": 65532,
      "max": [
        13.99116039276123,
        -0.3069000244140625,
        9.7477617263793945
      ],
      "min": [
        2.3201775550842285,
        -11.325106620788574,
        -5.6159200668334961
      ],
      "type": "VEC3"
    },
    {
      "bufferView": 2,
      "byteOffset": 5504736,
      "componentType": 5126,
      "count": 65532,
      "max": [
        0.99999320507049561,
        0.99997168779373169,
        0.9999854564666748
      ],
      "min": [
        -0.99912428855895996,
        -0.99999821186065674,
        -0.99999552965164185
      ],
      "type": "VEC3"
    },
    {
      "bufferView": 3,
      "byteOffset": 3145568,
      "componentType": 5126,
      "count": 65532,
      "max": [
        0.85490196943283081,
        0.84705883264541626,
        0.87058824300765991,
        1
      ],
      "min": [
        0,
        0,
        0,
        1
      ],
      "type": "VEC4"
    },
    {
      "bufferView": 1,
      "byteOffset": 1572784,
      "componentType": 5126,
      "count": 65532,
      "max": [
        0.9996340274810791,
        0.99987798929214478
      ],
      "min": [
        0.00012199999764561653,
        0.00036599999293684959
      ],
      "type": "VEC2"
    },
    {
      "bufferView": 0,
      "byteOffset": 3512520,
      "componentType": 5125,
      "count": 260613,
      "max": [
        65531
      ],
      "min": [
        0
      ],
      "type": "SCALAR"
    },
    {
      "bufferView": 2,
      "byteOffset": 6291120,
      "componentType": 5126,
      "count": 65532,
      "max": [
        9.9441709518432617,
        -0.27907276153564453,
        9.9822664260864258
      ],
      "min": [
        -9.8603315353393555,
        -11.121759414672852,
        -9.7347030639648438
      ],
      "type": "VEC3"
    },
    {
      "bufferView": 2,
      "byteOffset": 7077504,
      "componentType": 5126,
      "count": 65532,
      "max": [
        0.9999929666519165,
        0.99999403953552246,
        0.99999058246612549
      ],
      "min": [
        -0.99999445676803589,
        -0.99999070167541504,
        -0.99994480609893799
      ],
      "type": "VEC3"
    },
    {
      "bufferView": 3,
      "byteOffset": 4194080,
      "componentType": 5126,
      "count": 65532,
      "max": [
        0.84313726425170898,
        0.83921569585800171,
        0.87058824300765991,
        1
      ],
      "min": [
        0,
        0,
        0,
        1
      ],
      "type": "VEC4"
    },
    {
      "bufferView": 1,
      "byteOffset": 2097040,
      "componentType": 5126,
      "count": 65532,
      "max": [
        0.99963301420211792,
        0.9947509765625
      ],
      "min": [
        0.00012199999764561653,
        0.00036599999293684959
      ],
      "type": "VEC2"
    },
    {
      "bufferView": 0,
      "byteOffset": 4554972,
      "componentType": 5125,
      "count": 284937,
      "max": [
        65531
      ],
      "min": [
        0
      ],
      "type": "SCALAR"
    },
    {
      "bufferView": 2,
      "byteOffset": 7863888,
      "componentType": 5126,
      "count": 65532,
      "max": [
        3.7353322505950928,
        -0.36317729949951172,
        10.667716026306152
      ],
      "min": [
        -9.3315868377685547,
        -8.8136167526245117,
        -11.446505546569824
      ],
      "type": "VEC3"
    },
    {
      "bufferView": 2,
      "byteOffset": 8650272,
      "componentType": 5126,
      "count": 65532,
      "max": [
        0.99995231628417969,
        0.99996185302734375,
        0.99997347593307495
      ],
      "min": [
        -0.99986416101455688,
        -0.99999719858169556,
        -0.9998658299446106
      ],
      "type": "VEC3"
    },
    {
      "bufferView": 3,
      "byteOffset": 5242592,
      "componentType": 5126,
      "count": 65532,
      "max": [
        0.81568628549575806,
        0.7921568751335144,
        0.82745099067687988,
        1
      ],
      "min": [
        0,
        0.0039215688593685627,
        0,
        1
      ],
      "type": "VEC4"
    },
    {
      "bufferView": 1,
      "byteOffset": 2621296,
      "componentType": 5126,
      "count": 65532,
      "max": [
        0.9996340274810791,
        0.98471099138259888
      ],
      "min": [
        0.00012199999764561653,
        0.00036599999293684959
      ],
      "type": "VEC2"
    },
    {
      "bufferView": 0,
      "byteOffset": 5694720,
      "componentType": 5125,
      "count": 294723,
      "max": [
        65531
      ],
      "min": [
        0
      ],
      "type": "SCALAR"
    },
    {
      "bufferView": 2,
      "byteOffset": 9436656,
      "componentType": 5126,
      "count": 65532,
      "max": [
        5.0054221153259277,
        -0.38878536224365234,
        12.297069549560547
      ],
      "min": [
        -9.2738447189331055,
        -11.098495483398438,
        -8.0219106674194336
      ],
      "type": "VEC3"
    },
    {
      "bufferView": 2,
      "byteOffset": 10223040,
      "componentType": 5126,
      "count": 65532,
      "max": [
        0.99991744756698608,
        0.99996680021286011,
        0.99998283386230469
      ],
      "min": [
        -0.99999445676803589,
        -0.99999946355819702,
        -0.99966198205947876
      ],
      "type": "VEC3"
    },
    {
      "bufferView": 3,
      "byteOffset": 6291104,
      "componentType": 5126,
      "count": 65532,
      "max": [
        0.62745100259780884,
        0.61568629741668701,
        0.60784316062927246,
        1
      ],
      "min": [
        0,
        0,
        0,
        1
      ],
      "type": "VEC4"
    },
    {
      "bufferView": 1,
      "byteOffset": 3145552,
      "componentType": 5126,
      "count": 65532,
      "max": [
        0.9996340274810791,
        0.99491602182388306
      ],
      "min": [
        0.00012199999764561653,
        0.00036599999293684959
      ],
      "type": "VEC2"
    },
    {
      "bufferView": 0,
      "byteOffset": 6873612,
      "componentType": 5125,
      "count": 285975,
      "max": [
        65531
      ],
      "min": [
        0
      ],
      "type": "SCALAR"
    },
    {
      "bufferView": 2,
      "byteOffset": 11009424,
      "componentType": 5126,
      "count": 65532,
      "max": [
        3.0818996429443359,
        -0.36317729949951172,
        8.3517694473266602
      ],
      "min": [
        -9.482172966003418,
        -11.109810829162598,
        -7.5264086723327637
      ],
      "type": "VEC3"
    },
    {
      "bufferView": 2,
      "byteOffset": 11795808,
      "componentType": 5126,
      "count": 65532,
      "max": [
        0.9982454776763916,
        0.99999958276748657,
        0.99996274709701538
      ],
      "min": [
        -0.9999997615814209,
        -0.9999995231628418,
        -0.99965399503707886
      ],
      "type": "VEC3"
    },
    {
      "bufferView": 3,
      "byteOffset": 7339616,
      "componentType": 5126,
      "count": 65532,
      "max": [
        0.84313726425170898,
        0.83921569585800171,
        0.87058824300765991,
        1
      ],
      "min": [
        0,
        0,
        0,
        1
      ],
      "type": "VEC4"
    },
    {
      "bufferView": 1,
      "byteOffset": 3669808,
      "componentType": 5126,
      "count": 65532,
      "max": [
        0.9996340274810791,
        0.99580198526382446
      ],
      "min": [
        0.00012199999764561653,
        0.00036599999293684959
      ],
      "type": "VEC2"
    },
    {
      "bufferView": 0,
      "byteOffset": 8017512,
      "componentType": 5125,
      "count": 270003,
      "max": [
        65531
      ],
      "min": [
        0
      ],
      "type": "SCALAR"
    },
    {
      "bufferView": 2,
      "byteOffset": 12582192,
      "componentType": 5126,
      "count": 65532,
      "max": [
        3.6492855548858643,
        -0.37666130065917969,
        8.3795299530029297
      ],
      "min": [
        -9.529022216796875,
        -11.121759414672852,
        -10.913236618041992
      ],
      "type": "VEC3"
    },
    {
      "bufferView": 2,
      "byteOffset": 13368576,
      "componentType": 5126,
      "count": 65532,
      "max": [
        0.99975407123565674,
        0.99999129772186279,
        0.99982762336730957
      ],
      "min": [
        -0.99989360570907593,
        -0.99999994039535522,
        -0.99967217445373535
      ],
      "type": "VEC3"
    },
    {
      "bufferView": 3,
      "byteOffset": 8388128,
      "componentType": 5126,
      "count": 65532,
      "max": [
        0.79607844352722168,
        0.73725491762161255,
        0.68627452850341797,
        1
      ],
      "min": [
        0,
        0,
        0,
        1
      ],
      "type": "VEC4"
    },
    {
      "bufferView": 1,
      "byteOffset": 4194064,
      "componentType": 5126,
      "count": 65532,
      "max": [
        0.9996340274810791,
        0.98438501358032227
      ],
      "min": [
        0.00012199999764561653,
        0.00036599999293684959
      ],
      "type": "VEC2"
    },
    {
      "bufferView": 0,
      "byteOffset": 9097524,
      "componentType": 5125,
      "count": 261450,
      "max": [
        65531
      ],
      "min": [
        0
      ],
      "type": "SCALAR"
    },
    {
      "bufferView": 2,
      "byteOffset": 14154960,
      "componentType": 5126,
      "count": 65532,
      "max": [
        3.6854329109191895,
        -0.36746692657470703,
        8.3722782135009766
      ],
      "min": [
        -9.4465055465698242,
        -10.788262367248535,
        -11.936686515808105
      ],
      "type": "VEC3"
    },
    {
      "bufferView": 2,
      "byteOffset": 14941344,
      "componentType": 5126,
      "count": 65532,
      "max": [
        0.99998354911804199,
        0.99989974498748779,
        0.99935621023178101
      ],
      "min": [
        -0.99998027086257935,
        -0.99999994039535522,
        -0.99994146823883057
      ],
      "type": "VEC3"
    },
    {
      "bufferView": 3,
      "byteOffset": 9436640,
      "componentType": 5126,
      "count": 65532,
      "max": [
        0.83529412746429443,
        0.80000001192092896,
        0.80784314870834351,
        1
      ],
      "min": [
        0,
        0,
        0,
        1
      ],
      "type": "VEC4"
    },
    {
      "bufferView": 1,
      "byteOffset": 4718320,
      "componentType": 5126,
      "count": 65532,
      "max": [
        0.9996340274810791,
        0.9969480037689209
      ],
      "min": [
        0.00012199999764561653,
        0.00036599999293684959
      ],
      "type": "VEC2"
    },
    {
      "bufferView": 0,
      "byteOffset": 10143324,
      "componentType": 5125,
      "count": 263028,
      "max": [
        65531
      ],
      "min": [
        0
      ],
      "type": "SCALAR"
    },
    {
      "bufferView": 2,
      "byteOffset": 15727728,
      "componentType": 5126,
      "count": 51743,
      "max": [
        11.369926452636719,
        -0.41279792785644531,
        13.495942115783691
      ],
      "min": [
        -9.5428047180175781,
        -9.5675315856933594,
        -7.188164234161377
      ],
      "type": "VEC3"
    },
    {
      "bufferView": 2,
      "byteOffset": 16348644,
      "componentType": 5126,
      "count": 51743,
      "max": [
        0.99987673759460449,
        0.99999845027923584,
        0.99983841180801392
      ],
      "min": [
        -0.99998080730438232,
        -0.99999582767486572,
        -0.99991911649703979
      ],
      "type": "VEC3"
    },
    {
      "bufferView": 3,
      "byteOffset": 10485152,
      "componentType": 5126,
      "count": 51743,
      "max": [
        0.83921569585800171,
        0.84705883264541626,
        0.86274510622024536,
        1
      ],
      "min": [
        0,
        0,
        0,
        1
      ],
      "type": "VEC4"
    },
    {
      "bufferView": 1,
      "byteOffset": 5242576,
      "componentType": 5126,
      "count": 51743,
      "max": [
        0.9996340274810791,
        0.9969480037689209
      ],
      "min": [
        0.00012199999764561653,
        0.00036599999293684959
      ],
      "type": "VEC2"
    },
    {
      "bufferView": 0,
      "byteOffset": 11195436,
      "componentType": 5125,
      "count": 201141,
      "max": [
        51742
      ],
      "min": [
        0
      ],
      "type": "SCALAR"
    }
  ],
  "asset": {
    "extras": {
      "author": "Renafox (https://sketchfab.com/kryik1023)",
      "license": "CC-BY-4.0 (http://creativecommons.org/licenses/by/4.0/)",
      "source": "https://sketchfab.com/3d-models/t-34-plastic-model-raw-scan-5090252558c04d5ba8a29972ac059560",
      "title": "T-34 Plastic Model (Raw Scan)"
    },
    "generator": "Sketchfab-8.7.0",
    "version": "2.0"
  },
  "bufferViews": [
    {
      "buffer": 0,
      "byteLength": 12000000,
      "byteOffset": 0,
      "name": "floatBufferViews",
      "target": 34963
    },
    {
      "buffer": 0,
      "byteLength": 5656520,
      "byteOffset": 12000000,
      "byteStride": 8,
      "name": "floatBufferViews",
      "target": 34962
    },
    {
      "buffer": 0,
      "byteLength": 16969560,
      "byteOffset": 17656520,
      "byteStride": 12,
      "name": "floatBufferViews",
      "target": 34962
    },
    {
      "buffer": 0,
      "byteLength": 11313040,
      "byteOffset": 34626080,
      "byteStride": 16,
      "name": "floatBufferViews",
      "target": 34962
    }
  ],
  "buffers": [
    {
      "byteLength": 45939120,
      "uri": "scene.bin"
    }
  ],
  "extensionsUsed": [
    "KHR_materials_unlit"
  ],
  "images": [
    {
      "uri": "textures/t34_plamo_Material_u1_v1_baseColor.jpeg"
    }
  ],
  "materials": [
    {
      "doubleSided": true,
      "emissiveFactor": [
        0,
        0,
        0
      ],
      "extensions": {
        "KHR_materials_unlit": {}
      },
      "name": "t34_plamo_Material_u1_v1",
      "pbrMetallicRoughness": {
        "baseColorFactor": [
          1,
          1,
          1,
          1
        ],
        "baseColorTexture": {
          "index": 0,
          "texCoord": 0
        },
        "metallicFactor": 0,
        "roughnessFactor": 1
      }
    }
  ],
  "meshes": [
    {
      "primitives": [
        {
          "attributes": {
            "COLOR_0": 2,
            "NORMAL": 1,
            "POSITION": 0,
            "TEXCOORD_0": 3
          },
          "indices": 4,
          "material": 0,
          "mode": 4
        }
      ]
    },
    {
      "primitives": [
        {
          "attributes": {
            "COLOR_0": 7,
            "NORMAL": 6,
            "POSITION": 5,
            "TEXCOORD_0": 8
          },
          "indices": 9,
          "material": 0,
          "mode": 4
        }
      ]
    },
    {
      "primitives": [
        {
          "attributes": {
            "COLOR_0": 12,
            "NORMAL": 11,
            "POSITION": 10,
            "TEXCOORD_0": 13
          },
          "indices": 14,
          "material": 0,
          "mode": 4
        }
      ]
    },
    {
      "primitives": [
        {
          "attributes": {
            "COLOR_0": 17,
            "NORMAL": 16,
            "POSITION": 15,
            "TEXCOORD_0": 18
          },
          "indices": 19,
          "material": 0,
          "mode": 4
        }
      ]
    },
    {
      "primitives": [
        {
          "attributes": {
            "COLOR_0": 22,
            "NORMAL": 21,
            "POSITION": 20,
            "TEXCOORD_0": 23
          },
          "indices": 24,
          "material": 0,
          "mode": 4
        }
      ]
    },
    {
      "primitives": [
        {
          "attributes": {
            "COLOR_0": 27,
            "NORMAL": 26,
            "POSITION": 25,
            "TEXCOORD_0": 28
          },
          "indices": 29,
          "material": 0,
          "mode": 4
        }
      ]
    },
    {
      "primitives": [
        {
          "attributes": {
            "COLOR_0": 32,
            "NORMAL": 31,
            "POSITION": 30,
            "TEXCOORD_0": 33
          },
          "indices": 34,
          "material": 0,
          "mode": 4
        }
      ]
    },
    {
      "primitives": [
        {
          "attributes": {
            "COLOR_0": 37,
            "NORMAL": 36,
            "POSITION": 35,
            "TEXCOORD_0": 38
          },
          "indices": 39,
          "material": 0,
          "mode": 4
        }
      ]
    },
    {
      "primitives": [
        {
          "attributes": {
            "COLOR_0": 42,
            "NORMAL": 41,
            "POSITION": 40,
            "TEXCOORD_0": 43
          },
          "indices": 44,
          "material": 0,
          "mode": 4
        }
      ]
    },
    {
      "primitives": [
        {
          "attributes": {
            "COLOR_0": 47,
            "NORMAL": 46,
            "POSITION": 45,
            "TEXCOORD_0": 48
          },
          "indices": 49,
          "material": 0,
          "mode": 4
        }
      ]
    },
    {
      "primitives": [
        {
          "attributes": {
            "COLOR_0": 52,
            "NORMAL": 51,
            "POSITION": 50,
            "TEXCOORD_0": 53
          },
          "indices": 54,
          "material": 0,
          "mode": 4
        }
      ]
    }
  ],
  "nodes": [
    {
      "children": [
        1
      ],
      "name": "RootNode (gltf orientation matrix)",
      "rotation": [
        -0.70710678118654746,
        -0,
        -0,
        0.70710678118654757
      ]
    },
    {
      "children": [
        2
      ],
      "matrix": [
        0.9999508261680603,
        0.00011926087609026581,
        -0.0099186021834611893,
        0,
        -0.0099191106855869293,
        0.0055411537177860737,
        -0.99993544816970825,
        0,
        -6.4292682509403676e-05,
        0.99998462200164795,
        0.0055420640856027603,
        0,
        -0.057399846613407135,
        -6.5497908592224121,
        -5.0059351921081543,
        1
      ],
      "name": "RootNode (model correction matrix)"
    },
    {
      "children": [
        3,
        4,
        5,
        6,
        7,
        8,
        9,
        10,
        11,
        12,
        13
      ],
      "name": "t34_plamo.obj.cleaner.materialmerger.gles"
    },
    {
      "mesh": 0,
      "name": ""
    },
    {
      "mesh": 1,
      "name": ""
    },
    {
      "mesh": 2,
      "name": ""
    },
    {
      "mesh": 3,
      "name": ""
    },
    {
      "mesh": 4,
      "name": ""
    },
    {
      "mesh": 5,
      "name": ""
    },
    {
      "mesh": 6,
      "name": ""
    },
    {
      "mesh": 7,
      "name": ""
    },
    {
      "mesh": 8,
      "name": ""
    },
    {
      "mesh": 9,
      "name": ""
    },
    {
      "mesh": 10,
      "name": ""
    }
  ],
  "samplers": [
    {
      "magFilter": 9729,
      "minFilter": 9987,
      "wrapS": 10497,
      "wrapT": 10497
    }
  ],
  "scene": 0,
  "scenes": [
    {
      "name": "OSG_Scene",
      "nodes": [
        0
      ]
    }
  ],
  "textures": [
    {
      "sampler": 0,
      "source": 0
    }
  ]
}

